<?xml version="1.0" encoding="UTF-8"?>
<svg version="1.1" xmlns="http://www.w3.org/2000/svg" width="417" height="576">
<path d="M0 0 C137.61 0 275.22 0 417 0 C417 190.08 417 380.16 417 576 C279.39 576 141.78 576 0 576 C0 385.92 0 195.84 0 0 Z M31 31 C31 198.31 31 365.62 31 538 C34.50924101 537.2981518 37.21407943 536.64562212 40.46264648 535.38037109 C41.32214905 535.0478685 42.18165161 534.71536591 43.06719971 534.37278748 C43.99248474 534.01000198 44.91776978 533.64721649 45.87109375 533.2734375 C46.84786072 532.89409561 47.82462769 532.51475372 48.83099365 532.12391663 C52.03476498 530.87835101 55.23615864 529.62679648 58.4375 528.375 C60.67413511 527.50373109 62.91087114 526.63272121 65.14770508 525.76196289 C79.699796 520.09208958 94.2341605 514.37747687 108.75561523 508.62963867 C120.99239638 503.7864708 133.24335544 498.9801664 145.5 494.1875 C146.4632016 493.81084198 147.4264032 493.43418396 148.41879272 493.04611206 C153.31942774 491.12985024 158.22022299 489.21399865 163.12109375 487.29833984 C171.79220481 483.90874003 180.46189852 480.51551828 189.13168335 477.12252808 C193.92758676 475.24563062 198.72355477 473.36889825 203.51953125 471.4921875 C204.94426506 470.93467049 204.94426506 470.93467049 206.39778137 470.3658905 C212.09729209 468.13565507 217.79695823 465.9058174 223.49674988 463.67630005 C250.81066285 452.99223984 278.11781489 442.29102474 305.42138672 431.58056641 C315.60329589 427.58649264 325.78545069 423.59304523 335.96768188 419.59979248 C339.12456413 418.3616947 342.28140087 417.12348094 345.43823242 415.88525391 C347.42236132 415.10709136 349.40649209 414.32893359 351.390625 413.55078125 C352.64287621 413.05955025 352.64287621 413.05955025 353.92042542 412.55839539 C364.61114615 408.36593987 375.30616992 404.18454221 386 400 C386 278.23 386 156.46 386 31 C268.85 31 151.7 31 31 31 Z M375.53515625 436.234375 C374.65641342 436.57921936 373.77767059 436.92406372 372.87229919 437.27935791 C369.93445443 438.43309811 366.99850793 439.59159431 364.0625 440.75 C361.98841382 441.56544145 359.91419261 442.38053949 357.83984375 443.1953125 C353.45785078 444.91698427 349.07656742 446.64044469 344.69580078 448.36523438 C335.03034412 452.1698887 325.35895347 455.9594028 315.68804932 459.75018311 C312.47531707 461.00967649 309.26277339 462.26964962 306.05029297 463.52978516 C286.26120854 471.29219788 266.46590937 479.0386875 246.66943359 486.78222656 C240.95263052 489.01844848 235.23605086 491.25524108 229.51953125 493.4921875 C228.56963821 493.86388565 227.61974518 494.2355838 226.6410675 494.61854553 C221.8421096 496.49642958 217.04320747 498.37445603 212.24438477 500.25268555 C203.6394921 503.62042874 195.0342554 506.98727616 186.42703247 510.34906006 C157.91866384 521.48391861 129.44866434 532.71348647 101 544 C101 544.33 101 544.66 101 545 C195.05 545 289.1 545 386 545 C386 508.04 386 471.08 386 433 C382.33274845 433 378.91477114 434.89610522 375.53515625 436.234375 Z " fill="#DFDEE0" transform="translate(0,0)"/>
</svg>
